<mxfile host="app.diagrams.net" modified="2024-03-21T00:22:36.762Z" agent="Mozilla/5.0 (Windows NT 10.0; Win64; x64) AppleWebKit/537.36 (KHTML, like Gecko) Chrome/122.0.0.0 Safari/537.36" version="24.0.7" etag="grwUlnTTPHmMlnfDRgaE" type="github">
  <diagram name="PÃ¡gina-1" id="IC1EFp8dv3o6imawjcaP">
    <mxGraphModel>
      <root>
        <mxCell id="0" />
        <mxCell id="1" parent="0" />
      </root>
    </mxGraphModel>
  </diagram>
</mxfile>
